<svg xmlns="http://www.w3.org/2000/svg" version="1.1" viewBox="18 66 2012 361">
<path transform="translate(64,69)" d="m0 0h192l9 4 7 8 7 26 4 15 9-14 9-10 8-7 16-9 18-6 19-4 15-2 15-1h197l1 232 3 8 5 5 8 4 4 1h11l13-4 8-6 4-7 2-11v-221l1-1h106l1 285 4 11 6 9 10 10 4 5v2l-6 1h-98l-8-2-6-4-5-6-4-12h-2l-7 8-10 7-13 6-13 3-11 1h-37l-19-3-18-6-11-6-12-10-8-11-3-3-2 4-9 10-14 9-14 6-19 5-13 2-12 1-45 1h-120l-15-59h-94l-4 15-11 44h-99l4-18 22-88 18-71 23-92 1-5v-12l-4-13-8-10-11-12zm114 74-32 128v3h66l-4-18-20-81-8-32z" fill="#B80245"/>
<path transform="translate(487,91)" d="m0 0 3 1-2 6-26 52 11-9 12-11 10-8 10-9 7-6 3 1-1 4-16 21-13 17-7 10 11-6 45-27h3l-1 4-17 16-16 15-10 9-1 2 41-16 17-7h5v3l-15 10-20 13-11 7-7 5h-2v2l14-4 50-11h4l-1 4-29 13-30 13h11l48-3h9l-1 4-62 16-2 1 67 6 1 4-15 2-51 5-1 1 44 11 19 5 1 4h-12l-47-3h-9l29 13 30 13 1 4-13-2-49-11-3-2-4-13-8-14-11-13-13-10-18-10-26-11-26-10-16-7-10-7-8-9-2-5v-10l4-9 6-5 8-4 15-3h20l18 4 12 4 3-1 7-9 26-32z" fill="#FEBF09"/>
<path transform="translate(221,202)" d="m0 0 26 1 32 2 9 1 10 14 11 10 11 7 17 9 35 13 22 8 16 8 8 6 6 8 2 5v13l-4 8-10 8-16 5-18 1-14-2-12-4h-2l-9 11-13 16-11 14-7 8-3-1 3-9 23-46-1-1-11 10-11 9-11 10-11 9-4 3h-2l1-5 14-19 10-13 11-15-3 1-29 17-23 14-4-1 6-7 9-9 8-7 15-14 8-7 1-2-60 24h-4l1-4 20-13 22-14 10-7h2v-2l-15 4-44 10-9 1v-3l16-8 21-9 24-10-26 1-32 2h-11l-1-3 9-3 44-11 11-3v-1l-61-6-5-1 1-4 67-6-5-2-60-15z" fill="#FEBF09"/>
<path transform="translate(1616,66)" d="m0 0h19l15 3 12 5 12 7 12 10-2 4-19 13-5 2-9-8-13-6-4-1h-17l-8 4h-2l-2 6v7l5 5 6 2 39 7 13 4 9 6 7 8 4 11v15l-4 13-6 9-7 7-15 8-12 3-7 1h-23l-16-3-13-5-11-7-7-6-5-6v-2l19-12 5-3 4 1 10 8 13 5 5 1h19l9-3 5-4 2-4-1-9-7-5-15-3-25-4-16-5-10-7-6-8-3-8-1-7v-9l3-12 7-11 8-7 14-7z" fill="#B80245"/>
<path transform="translate(851,254)" d="m0 0h35l1 91 2 10 3 5 10 5 11 1 12-3 6-5 3-8 1-96h35v93l-3 14-5 10-9 10-9 6-12 5-9 2-16 1-15-2-12-4-10-6-6-5-7-10-4-11-2-18z" fill="#B80245"/>
<path transform="translate(899,69)" d="m0 0h36l16 43 17 46 18 48v2h-37l-3-8-4-13v-2h-51l-3 12-4 11h-37l3-10 41-110 7-18zm16 35-9 33-7 22v2h35l-3-12-14-45z" fill="#B80245"/>
<path transform="translate(1969,102)" d="m0 0h18l11 3 10 5 10 9 7 12 4 15 1 8v9l-73 1 2 10 4 7 7 5 8 2 9-1 10-5 7-9 1-2 5 1 19 9-4 7-9 10-10 7-12 5-14 2-14-1-13-4-10-6-7-7-6-10-4-13-1-16 3-17 5-12 8-11 10-7 9-4zm3 22-7 4-6 7-2 5v4h41l-1-9-4-6-6-4-3-1z" fill="#B80245"/>
<path transform="translate(1251,102)" d="m0 0h19l12 3 10 4 9 7 7 9 6 13 2 8v21l-4 14-7 12-9 8-9 5-7 3-11 2h-15l-14-3-14-7-9-8-6-10-4-10-1-5v-23l4-13 6-11 8-8 10-6 12-4zm8 24-9 2-6 4-6 10-2 9v10l3 12 6 8 5 4 3 1h16l6-3 7-8 3-8v-20l-4-11-4-5-7-4z" fill="#B80245"/>
<path transform="translate(1277,286)" d="m0 0h11l12 2 10 4 10 8 6 8 5 11 3 12v15l-72 1 1 9 4 8 8 6 3 1h13l8-3 4-4h2l2-5 3-5 6 2 17 9-2 5-8 10-11 8-11 5-10 2h-20l-13-4-10-6-9-9-6-12-3-13v-17l4-17 6-11 9-10 10-6 11-3zm0 22-8 4-6 8-1 8h41l-1-8-5-8-8-4z" fill="#B80245"/>
<path transform="translate(1802,102)" d="m0 0h9l14 2 11 4 8 6 5 8 1 3 1 70 1 13h-28l-1-1v-7l-12 7-9 3-6 1h-8l-12-3-6-4-7-7-4-9-1-4v-9l4-11 8-9 14-7 16-4 20-4-1-11-5-5-7-1-9 3-3 4-2 4h-30l1-10 6-10 10-7 13-4zm17 57-21 7-8 5-2 4v6l5 6 5 2 7-1 9-5 5-8 2-16z" fill="#B80245"/>
<path transform="translate(1473,102)" d="m0 0 18 1 13 4 9 6 6 8 2 7v64l1 11 1 5h-29l-1-8-14 8-6 2-14 1-13-3-8-6-5-6-4-9v-15l5-10 8-8 12-6 36-8v-9l-2-5-6-3-10 1-5 3-3 7h-31l1-9 4-8 7-7 11-5 7-2zm16 57-23 8-7 6v9l4 5 5 2 7-1 6-3 5-4 4-8 1-5v-9z" fill="#B80245"/>
<path transform="translate(1627,289)" d="m0 0h31l3 8 12 53 2 9 2-5 14-61 2-4h31l-1 7-14 43-21 64-7 14-8 7-5 2-10 1h-23v-24l16-1 6-3v-9l-20-64-10-33z" fill="#B80245"/>
<path transform="translate(1377,103)" d="m0 0h18l10 4 7 5 5 10 1 6v80h-30l-1-69-3-7-4-3-4-1h-8l-6 3-3 5-1 4-1 67-1 1h-29l-1-1v-101l3-1h27l1 1 1 7 6-5 9-4z" fill="#B80245"/>
<path transform="translate(1039,287)" d="m0 0h14l10 3 6 4 5 6 3 8 1 17v65l-1 2h-30l-1-72-4-6-4-2h-11l-6 3-3 7-1 13v25l-1 32h-30v-102h30l1 5 1 1 9-6z" fill="#B80245"/>
<path transform="translate(1451,286)" d="m0 0h10l14 2 12 4 11 6 4 4-12 11-6 5-5-2-10-5-9-2-11 1-4 2-1 7 8 4 21 4 14 5 9 6 6 8 2 7v11l-4 11-7 8-10 6-12 4-6 1h-19l-15-3-16-8-10-8 5-5 14-13 8 6 12 6 3 1h15l7-3 2-1 1-7-5-4-26-5-14-5-8-6-6-12v-13l3-8 6-8 7-6 10-4z" fill="#B80245"/>
<path transform="translate(1112,105)" d="m0 0h87l1 1v23l-18 18-7 8-28 28 53 1v24h-94v-23l27-27 7-8 20-20-48-1z" fill="#B80245"/>
<path transform="translate(1132,289)" d="m0 0h31l3 5 13 50 3 16 9-39 8-32h32l-13 41-20 61-1 1h-32l-19-58-14-43z" fill="#B80245"/>
<path transform="translate(1871,76)" d="m0 0h31v32h20v17l-6 2h-14v51l2 4 8 1h8v24l-1 1-8 1h-15l-10-2-8-5-5-8-2-10v-58h-14l-1-1v-17h15z" fill="#B80245"/>
<path transform="translate(1703,76)" d="m0 0h30l1 31 20 1v18l-10 1h-10v52l2 3 8 1h8v24l-10 2h-14l-10-2-8-5-5-7-2-9v-60h-14l-1-1v-17h15z" fill="#B80245"/>
<path transform="translate(1569,260)" d="m0 0h30v32h20v18h-20l1 53 4 4 14 1v23l-5 1h-25l-10-4-6-7-3-9v-62h-15v-18h15z" fill="#B80245"/>
<path transform="translate(1404,288)" d="m0 0h2v27l-19 4-6 3-2 4-1 6-1 60h-30v-103h30v9l16-8z" fill="#B80245"/>
<path transform="translate(1050,104)" d="m0 0h3v27l-22 5-5 5-1 6-1 61h-30l-1-102 1-1h29v10l12-7z" fill="#B80245"/>
<path transform="translate(1093,289)" d="m0 0h30v103h-30z" fill="#B80245"/>
<path transform="translate(1064,105)" d="m0 0h29v103h-29l-1-1v-101z" fill="#B80245"/>
<path transform="translate(1514,289)" d="m0 0h29v103h-29l-1-73z" fill="#B80245"/>
<path transform="translate(1064,69)" d="m0 0h29v24h-29l-1-1v-22z" fill="#B80245"/>
<path transform="translate(1093,253)" d="m0 0h30v23h-30z" fill="#B80245"/>
<path transform="translate(1514,253)" d="m0 0h29v23h-29z" fill="#B80245"/>
<path transform="translate(505,278)" d="m0 0 9 5 23 15 18 12v3l-7-1-42-17-1-1z" fill="#FEBF09"/>
<path transform="translate(229,175)" d="m0 0 9 1 41 9 4 9 2 8-10-3-29-13-17-7z" fill="#FEBF09"/>
<path transform="translate(505,304)" d="m0 0 8 6 12 12 8 7 4 4-1 3-7-3-22-13-4-3z" fill="#FEBF09"/>
<path transform="translate(242,150)" d="m0 0 7 1 28 11 1 1v13l-11-6-10-7-15-10z" fill="#FEBF09"/>
<path transform="translate(499,333)" d="m0 0h2l8 11 6 8-1 4-4-2-13-11z" fill="#FEBF09"/>
<path transform="translate(260,127)" d="m0 0 5 1 15 9-1 10-6-4-13-13z" fill="#FEBF09"/>
</svg>