<svg xmlns="http://www.w3.org/2000/svg" version="1.1" viewBox="20 22 2014 245">
<path transform="translate(53,24)" d="m0 0h144l6 3 5 6 7 27v4h2l1-5 7-10 8-8 14-8 16-5 16-3 11-1h152l1 172 4 8 6 4 4 1h10l11-4 6-7 1-3 1-171h79l1 211 4 11 11 12 3 5-1 1h-76l-9-3-6-7-2-9-5 5-7 6-13 6-9 2-11 1h-21l-19-3-14-5-10-7-5-5-5-6-1-2h-2l-7 8-8 6-10 5-13 4-20 3h-125l-3-9-8-32v-3l-70 1-10 41-1 2h-73l2-12 17-67 30-120 1-10-3-12-8-10-6-6zm85 55-23 92v5h48l-2-11-21-84z" fill="#8C1C40"/>
<path transform="translate(637,128)" d="m0 0h34v49h49v-48l1-1h33v136h-33l-1-1v-57h-49v58h-34z" fill="#030202"/>
<path transform="translate(1271,125)" d="m0 0h18l15 3 12 5 12 7 11 10v2l-17 12-6 4-4-2-11-8-10-4-4-1h-14l-7 3-5 5-1 7 2 6 9 3 36 6 16 5 8 6 6 7 4 10v17l-4 11-5 8-5 6-11 7-11 4-9 2-21 1-16-2-13-4-12-6-12-11-4-5 10-7 15-9 8 6 10 6 15 4h12l10-3 6-4 3-6-1-6-5-5-10-3-32-5-12-4-10-6-7-8-4-9v-20l4-11 4-6 8-8 12-6 11-3z" fill="#020102"/>
<path transform="translate(366,40)" d="m0 0h3l-1 5-18 36 3-2 11-9 12-11 9-7h3l-2 5-16 21-9 12 11-6 28-17 3-1v4l-9 9-8 7-15 14 16-6 28-11 2 1-2 4-22 14-15 10 45-10h4l-1 4-42 18 49-2v3l-18 5-27 7v1l43 4 4 1v3l-39 4h-11v2l8 1 39 10v4l-34-2h-13l41 18v4l-19-4-27-6-2-2-4-12-7-11-9-9-14-9-19-9-26-10-16-8-6-5-4-8v-7l4-8 7-5 13-3h16l14 3 10 3 2-4 14-17z" fill="#FEC628"/>
<path transform="translate(170,122)" d="m0 0 24 1 25 2 8 10 8 8 13 8 18 8 31 11 14 7 7 6 4 8v10l-4 6-6 5-10 4-6 1h-15l-16-5-2 4-14 17-13 16-3-1 2-6 17-34-4 2-13 12-11 9-7 6-3-1 4-7 14-18 9-12-3 1-20 12-16 10h-4l2-4 9-9 8-7 7-7 8-7-25 10-18 7h-4l2-4 20-13 17-11-20 4-22 5h-7l1-3 41-18 2-1-49 3v-4l47-12-49-5-1-3 15-2 31-3 1-1-43-11-2-1z" fill="#FEC628"/>
<path transform="translate(1094,128)" d="m0 0h30l1 44 9-7 11-4h15l10 4 8 7 5 10 1 5v77h-29l-1-57-2-13-4-5-5-2h-7l-6 3-3 3-2 6-1 64-1 1h-29z" fill="#010001"/>
<path transform="translate(1396,160)" d="m0 0h12l12 2 11 4 11 8 8 11 4 9 3 16-1 15-4 13-6 10-9 9-14 7-8 2h-23l-12-3-13-7-8-8-5-8-4-12-1-6v-17l4-16 6-10 4-5 13-9 13-4zm1 24-7 3-5 4-5 10-1 4v16l4 11 7 8 8 3h10l9-4 6-7 3-8 1-11-2-13-4-8-7-6-5-2z" fill="#020202"/>
<path transform="translate(1771,160)" d="m0 0h12l12 2 12 5 8 6 7 7 6 12 3 11v21l-4 14-7 11-8 8-14 7-9 2h-23l-13-4-8-4-10-9-6-9-4-11-1-6v-19l3-12 6-12 7-8 11-7 13-4zm1 24-8 3-6 7-4 10v18l3 9 8 9 8 3h9l10-4 5-6 4-10v-19l-4-10-6-7-7-3z" fill="#020102"/>
<path transform="translate(812,160)" d="m0 0h12l16 4 11 7 8 9 6 13 3 15v11h-71l2 11 5 8 6 4 3 1h13l8-3 8-9 2-4 6 2 17 9-6 9-5 6-10 7-8 4-12 3h-18l-12-3-11-6-9-9-7-14-2-8-1-14 2-14 4-12 7-11 9-8 10-5zm4 21-9 3-5 4-4 7-1 6h40l-1-9-4-6-8-4z" fill="#010101"/>
<path transform="translate(912,161)" d="m0 0h22l16 4 10 7 4 6 2 7 1 74 1 5h-28v-9l-13 8-10 3h-16l-11-4-7-6-5-9-2-7v-8l3-9 4-6 9-8 9-4 26-6 10-1-2-12-3-4-10-1-9 3-2 6-1 2h-29v-8l5-10 8-7 12-5zm23 55-21 7-7 5-2 5 1 6 6 5 5 1 9-3 7-6 3-7 1-13z" fill="#020102"/>
<path transform="translate(1512,164)" d="m0 0h30l1 71 5 5 2 1h12l7-4 2-4 1-69h30v100h-29l-1-1-1-7-6 5-9 4-4 1h-18l-9-3-7-6-5-10-1-5z" fill="#040102"/>
<path transform="translate(1894,161)" d="m0 0h13l11 3 8 6 4 7 2 10v76l-1 1h-28l-1-1-1-69-3-5-5-3h-11l-6 4-2 5-1 7-1 62h-29v-100h30l1 6 9-6z" fill="#030102"/>
<path transform="translate(1982,160)" d="m0 0h12l16 3 14 6 8 5-2 4-8 8-7 6-5-2-12-6-5-1h-8l-7 2-2 3 1 5 6 3 23 5 11 4 8 5 7 8 2 5v16l-5 10-4 5-11 7-12 4-6 1h-18l-14-3-9-4-10-6-6-5 2-4 15-14 4 2 10 7 8 3 10 1 12-3 3-4v-5l-4-3-28-6-11-4-8-6-5-8-1-3v-14l4-10 5-6 9-6 11-4z" fill="#020202"/>
<path transform="translate(1626,135)" d="m0 0h29v31h20v17l-1 1h-19l1 52 3 3 14 1v23l-5 1h-23l-9-3-5-4-4-7-1-4v-62h-15v-18l14-1z" fill="#010101"/>
<path transform="translate(1035,135)" d="m0 0h29l1 30 19 1v18h-20l1 51 3 4 15 1v22l-5 2h-24l-10-4-6-7-2-4-1-6v-59h-14v-18h14z" fill="#010101"/>
<path transform="translate(1468,128)" d="m0 0h29v136h-29z" fill="#010000"/>
<path transform="translate(981,128)" d="m0 0h29v136h-29z" fill="#010000"/>
<path transform="translate(1684,163)" d="m0 0h29v101h-28l-1-1z" fill="#010000"/>
<path transform="translate(882,41)" d="m0 0h13l6 3 2-3h13v55l-3 6-6 5-7 2h-17l-9-4-5-6-1-7 1-1h14l3 6 2 1h10l3-5 1-7-8 3h-11l-8-4-5-6-2-6v-16l5-10 5-4zm6 11-4 4-1 3v11l3 6 4 2 7-1 3-3 1-2v-15l-5-5z" fill="#060405"/>
<path transform="translate(660,22)" d="m0 0h14l10 4 8 7 3 4v3l-13 6-4-6-5-3h-10l-6 4-4 7-1 5v8l3 10 4 5 4 2h9l7-4 4-5 13 7-4 6-9 8-8 3h-17l-12-6-7-8-4-10-1-7v-9l3-12 6-9 7-6z" fill="#040303"/>
<path transform="translate(942,40)" d="m0 0h13l8 3 5 5 4 6 2 8v7l-1 1h-35l4 8 5 3 9-1 3-1 2-5 2-1 10 5-2 5-8 7-7 3h-15l-10-5-6-8-2-8v-9l3-10 4-6 6-5zm2 11-5 6v3h20l-3-7-3-2z" fill="#090909"/>
<path transform="translate(829,40)" d="m0 0h13l8 3 8 9 3 11v6l-1 1h-35l4 9 5 2h6l6-4 4-4 10 5-2 5-8 7-8 3h-14l-10-5-6-8-2-6v-13l4-11 7-7zm2 11-5 5-1 4h20l-1-6-4-3z" fill="#080808"/>
<path transform="translate(1014,40)" d="m0 0h14l10 4 7 8 3 7v14l-4 10-8 7-9 3h-11l-11-4-5-5-4-6-2-10 1-10 5-10 8-6zm3 12-6 5-2 7 1 9 4 6 4 2h7l6-4 2-5v-11l-3-6-4-3z" fill="#040303"/>
<path transform="translate(720,40)" d="m0 0h14l10 4 7 8 3 8v13l-4 10-8 7-9 3h-11l-11-4-5-5-4-6-2-9 1-11 5-10 8-6zm3 12-6 5-2 7 1 9 4 6 4 2h7l6-4 2-5v-11l-3-6-4-3z" fill="#040303"/>
<path transform="translate(1070,23)" d="m0 0h12l2 1v11l-8 1-1 7h10v8l-1 1h-9v39l-1 1h-13l-1-1v-39h-8v-9h8v-11l3-5 4-3z" fill="#040404"/>
<path transform="translate(788,24)" d="m0 0h15v67l-1 1h-14z" fill="#030303"/>
<path transform="translate(762,24)" d="m0 0h15v67l-1 1h-13l-1-1z" fill="#030303"/>
<path transform="translate(1684,128)" d="m0 0h29v23h-29z"/>
<path transform="translate(379,179)" d="m0 0 5 2 16 10 17 11v3l-7-1-29-12-1-1z" fill="#FEC72D"/>
<path transform="translate(176,102)" d="m0 0 12 2 26 6 4 13-9-3-32-14-2-3z" fill="#FEC62A"/>
<path transform="translate(380,198)" d="m0 0 7 6 12 11 5 5v2l-5-1-20-12v-8z" fill="#FEC629"/>
<path transform="translate(186,83)" d="m0 0 9 3 17 7 1 10-5-2-16-10-7-5z" fill="#FEC82F"/>
<path transform="translate(199,66)" d="m0 0 5 2 10 6-1 8-7-6-8-7z" fill="#FEC72B"/>
<path transform="translate(376,220)" d="m0 0 5 5 7 10-1 2-4-2-9-7 1-7z" fill="#FEC72E"/>
<path transform="translate(585,23)" d="m0 0 7 2 4 6-1 8-5 4-6 1-6-3-3-7 2-7 4-3zm-3 2-5 5v7l5 5h7l5-5v-7l-5-5z" fill="#BB7A8F"/>
<path transform="translate(582,28)" d="m0 0h7l1 1v10l-3-1-3-3v4h-2zm2 2v3l4-1v-2z" fill="#9A3958"/>
</svg>