<svg xmlns="http://www.w3.org/2000/svg" version="1.1" viewBox="12 20 1548 1549">
<path transform="translate(768,20)" d="m0 0 36 1 1 1 2 33 5 21 6 15 9 14 11 12 9 8 10 6 27 11 26 9 18 2 18 1h22l20-4 17-7 13-8 10-9 8-8 12-16 10-19 5-13 7 1 28 11 1 3-7 19-4 15-3 19v16l4 21 6 15 6 11 34 34 11 9 10 9 10 6 19 9 18 6 12 2h20l16-3 18-6 15-8 14-10 15-14 4-4 4 2 12 11 12 12-2 4-12 12-11 14-11 20-6 18-2 12v23l4 15 10 25 9 20 10 18 8 10 12 13 5 5 10 9 14 8 12 5 16 4 9 1h19l19-3 21-6 12-5h3l7 18 6 16-4 3-18 8-15 9-10 8-10 9-7 8-8 14-6 14-3 11v56l2 18 5 17 8 22 9 17 8 9v2h2l4 5 13 10 14 8 21 7 16 3 9 1 22 1 1 1v36l-2 1-23 1-18 3-20 6-16 8-14 11-10 11-7 11-9 21-12 33-2 12-2 32v9l2 15 6 20 8 15 11 14 12 11 18 12 17 9 10 4 1 3-13 32-2 1-19-7-21-6-15-2h-13l-14 2-16 5-16 8-15 13-9 9-7 8-10 10-11 14-12 23-8 19-4 15-1 5-1 15 1 14 5 20 7 16 10 16 13 15 9 9-1 4-9 9-6 7-8 7h-4l-12-12-14-11-13-8-17-7-15-4-6-1h-22l-16 4-36 15-16 8-9 6-13 11-13 12-9 10-9 14-5 11-4 14-2 12v24l5 25 5 15 4 9-1 3-27 11-7 2-4-8-11-23-11-15-11-12-12-9-15-8-15-5-16-2h-21l-23 1-18 2-20 6-19 7-14 7-13 10-8 8-10 14-8 15-5 15-4 20-2 31h-37l-1-1-1-26-3-19-5-16-8-16-8-12-12-12-10-7-22-10-30-11-17-5-18-2h-34l-21 5-17 8-10 7-13 11-10 12-11 18-9 19-2 5-9-3-25-10-1-5 6-14 5-17 2-10 1-10v-16l-2-14-5-16-9-16-11-12-7-8-8-7-7-7-8-7-13-11-21-11-20-8-17-4h-27l-18 4-19 8-10 6-11 8-10 9-7 6-3 4-5-2-7-8-15-15 1-5 9-8 9-11 9-13 6-10 6-16 3-14 1-17-2-17-6-17-11-24-11-23-7-10-12-14-9-9v-2l-4-2-8-7-16-9-14-5-18-4h-26l-20 4-30 10-4-9-10-23 1-4 19-8 18-11 10-8 10-9 11-15 7-14 5-17v-52l-1-19-2-11-8-24-9-19-10-14-13-13-16-10-16-7-15-4-20-3-23-1v-38l28-2 18-3 16-5 16-8 11-8 5-5h2l2-4 7-8 8-16 13-32 6-19 2-14 1-13v-29l-4-19-7-16-7-11-9-11-8-8-18-13-10-6-21-9-1-4 12-27 2-4 5 1 21 7 17 4 8 1h24l18-4 17-7 11-7 32-32 9-11 8-10 12-23 6-15 3-12 1-8v-20l-4-20-7-17-11-18-11-14-12-12 1-4 20-20 3-4 4 1 11 11 11 9 15 10 18 8 17 4 8 1h16l16-3 37-15 16-8 14-8 10-9 11-9 12-12 11-16 8-19 3-13 1-8v-20l-3-19-5-16-5-13-2-6 12-5 21-9 3 1 13 27 7 11 8 10 6 7 14 11 15 8 15 5 4 1 13 1 45-1 21-2 17-5 19-7 13-7 13-10 3-3h2l2-4 7-8 8-14 7-16 4-15 3-21 1-20zm-75 153-28 4-21 5-20 8-14 9-10 9-3 9v7l4 13 9 17 8 12 7 10 2 3 7-1 32-8 32-6 36-5 3-7 5-22 1-8v-27l-4-10-7-8-7-4zm169 2-15 3-9 5-5 6-3 9-1 7 1 17 5 28 3 9 41 6 31 6 32 8 14-18 8-13 7-14 4-14v-11l-4-10-8-7-12-6-20-6-16-3-22-2zm-373 69-14 5-12 6-17 10-18 12-10 9-8 7-9 9-9 14-4 10 1 10 4 8 9 10 9 8 20 13 9 6 5-3 16-13 19-13 14-10 20-12 18-10 1-4-5-29-5-16-8-16-8-7-11-4zm579 2-7 4-7 8-6 13-4 13-6 30v5l23 13 21 13 17 12 18 13 8 6 4-1 14-8 12-8 14-12 8-9 4-8 1-3v-14l-3-6-9-10-10-9-14-11-24-16-16-8-13-5-10-2zm179 150-9 4-9 7-11 13-13 20-5 8 1 4 11 13 13 19 9 12 12 19 13 23 4 2 27-5 21-7 11-6 8-7 3-5 2-7v-8l-6-15-11-21-15-24-13-15-9-9-10-8-14-7zm-940 2-8 3-6 5v2l-4 2-7 8-12 15-9 13-8 12-8 18-5 17-1 6v10l3 8 7 7 14 7 16 5 20 4 11 1 6-10 11-18 14-22 11-15 13-17 3-3-1-5-8-14-10-14-12-13-8-7-8-4-4-1zm-103 206-10 3-8 7-8 18-7 25-4 25v38l4 16 4 6 5 4 10 4h24l34-7 2-6 6-39 8-36 6-22-1-5-18-14-16-9-11-5-12-3zm1148 0-12 4-15 8-16 11-8 6 1 7 9 36 6 32 4 29 1 4 34 7 22 1 10-2 10-5 7-8 2-5v-30l-4-27-5-19-8-20-9-16-9-10-7-3zm11 230-20 3-18 4-3 2-6 44-8 39-5 19 1 5 14 10 14 9 16 8 10 3h12l10-4 5-5 6-10 9-27 3-16 2-18v-35l-3-13-5-9-6-5-7-3-6-1zm-1174 2-10 3-8 6-6 9-1 6v21l4 28 5 23 7 19 7 14 7 9 7 6 4 2h14l14-5 11-6 25-17 1-5-11-44-5-26-4-30-2-5-23-6-15-2zm1074 207-13 24-13 21-12 17-13 18-9 12 4 8 11 18 11 13 9 9 10 6 5 2h11l6-2 8-6 8-8 9-11 8-10 8-13 11-21 8-19 3-12v-17l-6-9-8-6-11-5-19-5-22-4zm-955 3-28 5-21 7-12 7-7 8-4 11v7l8 20 11 20 13 19 9 11 6 7h2l1 3 11 9 14 9 6 2 10-1 8-4 10-9 9-10 10-15 7-11v-4l-11-14-10-13-12-17-15-24-13-22zm822 162-14 11-19 14-15 10-19 12-18 10-4 3 4 25 6 21 6 14 9 10 8 4 9 2 12-4 19-9 20-12 12-9 15-14 11-11 7-10 4-10v-10l-4-9-8-10-14-11-26-17zm-688 3-15 10-13 9-13 12-6 7-4 9-1 4v10l3 7 8 10 10 9 16 12 16 11 17 9 22 8 8 2h14l9-5 6-7 5-10 5-17 5-26v-5l-8-5-23-13-31-21-16-12-10-8zm502 97-29 8-34 7-40 6-2 2-6 31-1 10v18l4 13 8 9 5 3 6 1h22l24-3 21-5 17-6 17-8 13-9 6-7 2-6v-10l-4-13-9-17-15-22-2-2zm-316 2-12 17-8 13-9 19-2 9v7l3 9 5 7 16 8 16 6 25 6 14 2h41l12-3 9-5 5-7 3-12v-14l-5-30-3-12-49-7-29-6-27-7z" fill="#2F6B9F"/>
<path transform="translate(768,20)" d="m0 0 36 1 1 1 2 33 5 21 6 15 9 14 11 12 9 8 10 6 27 11 26 9 18 2 18 1h22l20-4 17-7 13-8 10-9 8-8 12-16 10-19 5-13 7 1 28 11 1 3-7 19-4 15-3 19v16l4 21 6 15 6 11 34 34 11 9 10 9 10 6 19 9 18 6 12 2h20l16-3 18-6 15-8 14-10 15-14 4-4 4 2 12 11 12 12-2 4-12 12-11 14-11 20-6 18-2 12v23l4 15 10 25 9 20 10 18 8 10 12 13 5 5 10 9 14 8 12 5 16 4 9 1h19l19-3 21-6 12-5h3l7 18 6 16-4 3-18 8-15 9-10 8-10 9-7 8-8 14-6 14-3 11v56l2 18 5 17 8 22 9 17 8 9v2h2l4 5 13 10 14 8 21 7 16 3 9 1 22 1 1 1v36l-2 1-23 1-18 3-20 6-16 8-14 11-10 11-7 11-9 21-12 33-2 12-2 32v9l2 15 6 20 8 15 11 14 12 11 18 12 17 9 10 4 1 3-13 32-2 1-19-7-21-6-15-2h-13l-14 2-16 5-16 8-15 13-9 9-7 8-10 10-11 14-12 23-8 19-4 15-1 5-1 15 1 14 5 20 7 16 10 16 13 15 9 9-1 4-9 9-6 7-8 7h-4l-12-12-14-11-13-8-17-7-15-4-6-1h-22l-16 4-36 15-16 8-9 6-13 11-13 12-9 10-9 14-5 11-4 14-2 12v24l5 25 5 15 4 9-1 3-27 11-7 2-4-8-11-23-11-15-11-12-12-9-15-8-15-5-16-2h-21l-23 1-18 2-20 6-19 7-14 7-13 10-8 8-10 14-8 15-5 15-4 20-2 31h-37l-1-1-1-26-3-19-5-16-8-16-8-12-12-12-10-7-22-10-30-11-17-5-18-2h-34l-21 5-17 8-10 7-13 11-10 12-11 18-9 19-2 5-9-3-25-10-1-5 6-14 5-17 2-10 1-10v-16l-2-14-5-16-9-16-11-12-7-8-8-7-7-7-8-7-13-11-21-11-20-8-17-4h-27l-18 4-19 8-10 6-11 8-10 9-7 6-3 4-5-2-7-8-15-15 1-5 9-8 9-11 9-13 6-10 6-16 3-14 1-17-2-17-6-17-11-24-11-23-7-10-12-14-9-9v-2l-4-2-8-7-16-9-14-5-18-4h-26l-20 4-30 10-4-9-10-23 1-4 19-8 18-11 10-8 10-9 11-15 7-14 5-17v-52l-1-19-2-11-8-24-9-19-10-14-13-13-16-10-16-7-15-4-20-3-23-1v-38l28-2 18-3 16-5 16-8 11-8 5-5h2l2-4 7-8 8-16 13-32 6-19 2-14 1-13v-29l-4-19-7-16-7-11-9-11-8-8-18-13-10-6-21-9-1-4 12-27 2-4 5 1 21 7 17 4 8 1h24l18-4 17-7 11-7 32-32 9-11 8-10 12-23 6-15 3-12 1-8v-20l-4-20-7-17-11-18-11-14-12-12 1-4 20-20 3-4 4 1 11 11 11 9 15 10 18 8 17 4 8 1h16l16-3 37-15 16-8 14-8 10-9 11-9 12-12 11-16 8-19 3-13 1-8v-20l-3-19-5-16-5-13-2-6 12-5 21-9 3 1 13 27 7 11 8 10 6 7 14 11 15 8 15 5 4 1 13 1 45-1 21-2 17-5 19-7 13-7 13-10 3-3h2l2-4 7-8 8-14 7-16 4-15 3-21 1-20zm-75 153-28 4-21 5-20 8-14 9-10 9-3 9v7l4 13 9 17 8 12 7 10 2 3 7-1 32-8 32-6 36-5 3-7 5-22 1-8v-27l-4-10-7-8-7-4zm169 2-15 3-9 5-5 6-3 9-1 7 1 17 5 28 3 9 41 6 31 6 32 8 14-18 8-13 7-14 4-14v-11l-4-10-8-7-12-6-20-6-16-3-22-2zm-373 69-14 5-12 6-17 10-18 12-10 9-8 7-9 9-9 14-4 10 1 10 4 8 9 10 9 8 20 13 9 6 5-3 16-13 19-13 14-10 20-12 18-10 1-4-5-29-5-16-8-16-8-7-11-4zm579 2-7 4-7 8-6 13-4 13-6 30v5l23 13 21 13 17 12 18 13 8 6 4-1 14-8 12-8 14-12 8-9 4-8 1-3v-14l-3-6-9-10-10-9-14-11-24-16-16-8-13-5-10-2zm-314 17-30 2-29 4-25 5-24 6-36 12-32 12-11 5-16 8-21 10-18 10-23 15-12 8-19 14-10 9-8 7-10 9-8 7-6 5v2l-4 2-10 10-7 8-13 14-7 8-10 11-7 9-10 14-8 12-11 18-9 16-12 23-11 24-13 32-10 30-7 26-7 36-4 25-2 21-1 19v46l3 37 6 39 7 33 9 31 10 28 12 28 11 24 12 23 5 8 6 11 13 19 12 16 10 13 11 12 18 20 11 12 15 14 12 11 14 12 14 11 18 13 17 11 21 13 14 8 28 13 23 10 15 6 20 7 26 8 28 7 26 5 29 4 28 2h44l47-3 30-4 34-7 30-9 36-12 20-8 29-14 22-11 17-10 20-13 14-10 9-7 16-12 7-7 11-9 36-36 7-8 8-9 9-11 9-10 17-25 9-13 14-24 8-16 11-23 6-13 11-29 12-36 9-36 5-28 3-30 1-15v-58l-2-31-6-42-6-29-9-31-10-29-7-19-7-15-8-17-10-19-8-15-8-13-17-25-8-11-13-16-9-11h-2l-2-4-3-4h-2l-2-4-33-33-8-7-14-12-8-7-18-14-27-18-20-12-23-12-16-8-21-9-29-11-37-12-22-6-36-7-36-3-14-1zm493 133-9 4-9 7-11 13-13 20-5 8 1 4 11 13 13 19 9 12 12 19 13 23 4 2 27-5 21-7 11-6 8-7 3-5 2-7v-8l-6-15-11-21-15-24-13-15-9-9-10-8-14-7zm-940 2-8 3-6 5v2l-4 2-7 8-12 15-9 13-8 12-8 18-5 17-1 6v10l3 8 7 7 14 7 16 5 20 4 11 1 6-10 11-18 14-22 11-15 13-17 3-3-1-5-8-14-10-14-12-13-8-7-8-4-4-1zm-103 206-10 3-8 7-8 18-7 25-4 25v38l4 16 4 6 5 4 10 4h24l34-7 2-6 6-39 8-36 6-22-1-5-18-14-16-9-11-5-12-3zm1148 0-12 4-15 8-16 11-8 6 1 7 9 36 6 32 4 29 1 4 34 7 22 1 10-2 10-5 7-8 2-5v-30l-4-27-5-19-8-20-9-16-9-10-7-3zm11 230-20 3-18 4-3 2-6 44-8 39-5 19 1 5 14 10 14 9 16 8 10 3h12l10-4 5-5 6-10 9-27 3-16 2-18v-35l-3-13-5-9-6-5-7-3-6-1zm-1174 2-10 3-8 6-6 9-1 6v21l4 28 5 23 7 19 7 14 7 9 7 6 4 2h14l14-5 11-6 25-17 1-5-11-44-5-26-4-30-2-5-23-6-15-2zm1074 207-13 24-13 21-12 17-13 18-9 12 4 8 11 18 11 13 9 9 10 6 5 2h11l6-2 8-6 8-8 9-11 8-10 8-13 11-21 8-19 3-12v-17l-6-9-8-6-11-5-19-5-22-4zm-955 3-28 5-21 7-12 7-7 8-4 11v7l8 20 11 20 13 19 9 11 6 7h2l1 3 11 9 14 9 6 2 10-1 8-4 10-9 9-10 10-15 7-11v-4l-11-14-10-13-12-17-15-24-13-22zm822 162-14 11-19 14-15 10-19 12-18 10-4 3 4 25 6 21 6 14 9 10 8 4 9 2 12-4 19-9 20-12 12-9 15-14 11-11 7-10 4-10v-10l-4-9-8-10-14-11-26-17zm-688 3-15 10-13 9-13 12-6 7-4 9-1 4v10l3 7 8 10 10 9 16 12 16 11 17 9 22 8 8 2h14l9-5 6-7 5-10 5-17 5-26v-5l-8-5-23-13-31-21-16-12-10-8zm502 97-29 8-34 7-40 6-2 2-6 31-1 10v18l4 13 8 9 5 3 6 1h22l24-3 21-5 17-6 17-8 13-9 6-7 2-6v-10l-4-13-9-17-15-22-2-2zm-316 2-12 17-8 13-9 19-2 9v7l3 9 5 7 16 8 16 6 25 6 14 2h41l12-3 9-5 5-7 3-12v-14l-5-30-3-12-49-7-29-6-27-7z" fill="#D0B349"/>
<path transform="translate(1045,507)" d="m0 0h26l18 3 15 6 9 8 5 9 6 5 8 2 23 1 12 6 8 5 20 4 4 1-3-9-4-10v-12l2-3 4-1 15 4 19 6h5l3-3 3-2-1-7 4 5 11 20 8 16 11 24 7 18 12 34 9 31 6 29 6 42 2 31v58l-3 36-2 14-2-4-9 6-3 3h-2v2l-8 7-9 9-11 15-4 8-8 29-15 15-6 8-5 10-11 14-9 14-7 3-25 3-22 2h-16l-1-6 5-21v-19l15-2 4-1 1-11-2-6-3-1-17-1-3-1v-8l5-20v-8l-11-25-4-11v-6l7-12 1-3v-9l-5-21-4-18v-5l1-1h9l10 5 5 2v2l4 2 6 7 8 13 5 11 3 11 2 17 2 5 2 1h11l3-1 1-32v-137l-1-11-4-2-12 1-2 5-3 14-5 19-8 16h-2v3l-4 4-3 2-11 8-12 4-5 1h-15l-3-8-4-16-1-20v-71l1-13 4-6 5-3 13-3h24l42 6 10 3 10 4 9 7 11 12 10 16 6 15 3 10 2 10 4 4h10l2-1 1-4h2l-1-4v-37l-1-15v-32l1-4v-10l-2-3-14-1h-24l-45 1h-16l-21 1h-53l-97-1h-32l1 17 2 1v2l2-1 15 1 14 4 8 7 4 11 1 14v74l-1 17-4 2h-20l-10-4-10-9-5-6-8-13-1-5h-2l-4-6v-2h-2l-5-5-8-6-5-6-2-5v-34l1-2v-18l2-13 3-24 4-12 6-20 5-18 2-3 3-1 23-1 10-4 10-9 9-11 8-7 14-7z" fill="#62739B"/>
<path transform="translate(574,306)" d="m0 0 2 1-4 1 2 6 3 3 4 7 2 2 10 2 13 7 7 7 8 7 3 4 4 2 4 4 12 4 5 6v18l-3 11-5 10-7 1-8-6-8-15-5-4h-6l-3 2-4 8-4 3-10 5-2 3-2 10-6 7-8 4-3 1h-9l-4-1h-10l-9 4-3 4-1 11-2 3 1 5 12 6 7 7v2l8 1 16-8 9-6 6-10 6-13 2-3h30l8 6 4 7 2 5 2 17 3 5 9 8 8 7 3 5v11l-4 7-6 5-5 2h-8l-10-4h-9l-10 5-7 5h-2l2 4 10-3h10l3 3-1 9-6 10-10 9-17 10-6 7-8 16-8 17-7 9-4 1h-15l-1 12-9 3-7 5-1 6 8 17 1 10-5 5-6-1-8-6-9-11-7-6-2-1h-13l-32 11-3 1-7-6-11-14-4-5-8-11-7-7-72-1-3-3-5-25-1-4v-9l3-16 4-12 5-11v-7l-2-11 4-11 11-16 2-5v-5l-4 2-2 5-5 6-2-1 9-12 11-14 9-10 14-15 7-8 14-15 3-3h2l1-3 8-7 12-11 8-7 14-12 18-13 12-8 20-13 16-9 16-8 15-8 15-7z" fill="#7F92B4"/>
<path transform="translate(623,749)" d="m0 0 6 1 15 8 13 8 19 11 23 13 18 8 11 7 8 9 12 5 21 1 10 3 30 14 25 13 7 5v9l-5 10-8 20-2 6-3 10-3 12-6 16-6 10-10 9-2 1h-9l-13-5-10-5-13-10-7-7-10-13-7-12-5-12v-2l-2-1-4-10-4-16-3-10-1-5-3-1h-16v134l17-1 2-1 5-12 5-3h10l35 11 6 2-1 6-7 20-10 32-5 5-17 4-8 6-5 7-5 13-7 6-9 5-3 5-3 14-4 7 1 7 7 15 3 19 10 14 1 4-2 5-10 3h-15l-8-3-7-6-8-16-8-20-4-16-8-16-4-14-4-26-2-14-6-12-9-14-3-20-2-9v-7l13-1 2-2v-63l-1-4-1-7v-137z" fill="#7E91B3"/>
<path transform="translate(306,618)" d="m0 0 107 1 13 16 10 13 12 14 11 14 14 17 9 11 13 16 9 11 14 17 11 14 11 13 11 14 14 17 13 16 9 12v2l3 1 5 5 5 2-1-172-2-15-5-12v-2l-3-1-5-5-6-4-13-4-14-2v-8h107v8l-15 3-9 4-6 3-7 8-4 13-1 59v260h-10l-2-4-3-1-5-7v-2h-2l-8-10-3-4v-2h-2l-9-11-11-13-8-10-3-4v-2h-2l-7-9v-2l-3-1-7-9v-2l-3-1-11-14-9-11v-2l-3-1-11-14-22-26-11-14-12-14-2-5-3-1-10-13v-2l-3-1-2-5h-2l-9-11-2-5-3-1-7-9v-2l-3-1-2-4-4-4v-2h-2l-2-5h-2l-3-4v-2l-3-1-3-5-4-4-4-5-7-3v228l4 16 6 9 2 4 14 7 23 5 1 6h-110l-3-2 1-3 13-3 11-2v-2l6-1v-2h3l2-4 3-1v-3h2l3-12 1-2 1-9v-252l-3-7-3-3-9-11-5-5-1-3-4-1-4-5-6-3v-2l-6-2-3-2z" fill="#FCFCFC"/>
<path transform="translate(976,619)" d="m0 0h291l1 1v98h-7l-5-21-6-17-5-9v-2h-2l-2-6h-2l-3-4v-2l-4-2-5-4v-2l-5-2-14-7-13-4-16-3-9-1h-49l-11 4-3 1-2 4-3 9-1 134 19-1 16-3 18-8 9-7 8-9 7-12 5-18 1-1 3-17 2-3 5 1v171l-7-1-1-15-6-21-4-9v-2h-2l-7-11-5-6-9-6-12-6-17-4-23-1v129l2 12 3 9h2l6 7 10 5 17 3 16 1 2 1v6l-5 1-177-1-2-6 6-2 14-2 12-4 9-8 3-5 2-5 1-7v-270l-2-8-4-9-6-7-10-5-10-2-13-1-1-1z" fill="#FBFBFB"/>
<path transform="translate(914,610)" d="m0 0 9 1v108h-7l-3-3-6-18-8-16-6-10-5-7v-2h-2l-9-11-4-4v-2l-4-2-9-7-11-6-12-5-18-4h-20l-11 3-11 4-6 4h-2v2l-5 4h-2l-2 5-6 8-3 9-1 6v17l3 13 7 11 7 7 7 5v2l6 2 5 4 44 22 19 10 12 6 10 4 19 10 6 4v2l5 2 17 17 1 4h2l8 14 5 12 4 19 1 7v19l-2 15-6 18-8 15-8 10-5 6-10 8-15 10-16 7-14 4-15 3-9 1h-44l-8-2-10-2-20-6-11-4-8-2h-14l-4 3h-2l-2 5-4 9h-9v-123l2-1h6l4 10 2 7 3 12 4 9 8 16 9 15 11 13 11 11 11 7 9 5 14 4 14 3h24l17-4 10-5 11-8 7-8 5-9 3-10 2-6v-24l-6-18h-2l-4-7-7-6-2-1v-2l-5-2-11-7-23-11-19-10-8-3-32-16v-2l-4-1-4-2v-2l-4-1-16-12-12-11-9-12-6-10-6-16-2-9-1-9v-18l3-18 6-18 7-14h2l2-5 9-10 11-9 7-4 8-5 16-5 14-3 8-1h37l20 3 5 2 12 3 16 6 4 1h15l6-4 4-5z" fill="#FCFCFC"/>
<path transform="translate(818,264)" d="m0 0h13l36 3 26 5 25 6 35 11 31 11 28 12 32 16 19 11 11 7 25 17 13 10 8 7 13 11 10 8 14 14h-3l-9-9-10-6-5-4-4-2-4 1 9 11 3 4 4 5 1 6 1 9-2 4-3-4 2 8-2 1-4-8-3 1 2 3-1 3-5 1v3h2v3l-5 1-9-3-12-6-15-9-14-7-14-4-19-5-1 2 14 9 21 11 20 7 13 7 6 5-1 10 1 3-4-2-8-7-16-7-27-6-17-7-17-9-6-1-1 2-21 6-8 5v9l2 6-3 5-5 6-3 8v8l2 9 3 7 2 10v10l-2 9-2 4h-2l-1 2-9 3-10 5h-2l-2 4-3 4-11-3-6-2h-16l-7-8-4-8-10-4-2-3-4-23-4-6-9-10-3-5 1-5 11-8 8-3 8-1h16v-2h6l1-1 12-1-1-6-6-5-5-7-5-5-10-8-11-5-9-2v-2l-3 1-8-3-2-5 5-6 6-2 7-3 8-9 6-13v-17l5-5v-5l-16-16 1-4 2-1h8l8 4 7 6h18l6-4h15l-1-6-10-9v-5l-19-10-26-6-19-7-13-6h-3l8 6 11 6 5 2 10 3 17 12 11 11 1 4-2 1-17-4-15-6-8-3h-5l-5 4-9 3-6-1-14-7-8-6-4-7 1-8 2-6 1-18-2-2-27-2z" fill="#7E91B3"/>
<path transform="translate(594,429)" d="m0 0h30l8 6 4 7 2 5 2 17 3 5 9 8 8 7 3 5v11l-4 7-6 5-5 2h-8l-10-4h-9l-10 5-7 5h-2l2 4 10-3h10l3 3-1 9-6 10-10 9-17 10-6 7-8 16-8 17-7 9-4 1h-15l-1 12-9 3-7 5-1 6 8 17 1 10-5 5-6-1-8-6-9-11-7-6-2-1h-13l-32 11-3 1-7-6-11-14-4-5-9-13-3-4 1-7h8l5 5h3l1 2 1-2 1-10 3-9h1l-1 9-1 7 1 4v4l1-5-1-6 3-5-1-13-3-16v-23h-1v-7l-3 3 2-13 4-10 4-6 9-12h2l2-4 2 1h1l8-9v3l-2 4 4-5 1-2h2v-2l6-5 4-4v3l-7 8 5-4 5-5h2l2-5 5-5h2v-2h2l2-4 7-6 6-2 3-4 15 2 7 3 6 6 4 2 8-1 17-9 5-4 6-10 6-13z" fill="#A1B4CD"/>
<path transform="translate(1045,507)" d="m0 0h26l18 3 15 6 9 8 5 9 6 5 12 3 16 1 3 1v3l4 2 1 4-1 4 3 5 10 20v15l-4 7-7 5-20 3-10 2-10 1h-22l-97-1h-32l1 17 2 1v2l2-1 15 1 14 4 8 7 4 11 1 14v74l-1 17-4 2h-20l-10-4-10-9-5-6-8-13-1-5h-2l-4-6v-2h-2l-5-5-8-6-5-6-2-5v-34l1-2v-18l2-13 3-24 4-12 6-20 5-18 2-3 3-1 23-1 10-4 10-9 9-11 8-7 14-7z" fill="#7F92B4"/>
<path transform="translate(743,1220)" d="m0 0h3l-1 6-2 5v10l5 13 3 9 3 3v2l4 2 9 4 29 6 9-1 24-9 20-6 4-1h14l16 3 13-4h18l14 2 21 6 25 11 7 4 8 1-3 2-34 12-30 9-15 4-29 6-30 4-47 3h-44l-28-2-29-4-26-5-32-8-33-11-27-10-9-4v-1l7-1 11-8 12-4 10-2 12-1h18l12 2 23 4h17l10-5 10-9 7-9 4-10h2l1-5 9-11z" fill="#62739B"/>
<path transform="translate(1129,636)" d="m0 0h24l35 5 9 4-1 2 3 2 2 3-4 2 1 4-2 6-4 2-1 7-6 7-3 8 3 3-4 7h-2l-6 30-3 10h-2v5l-7 12-5 9-10 7-12 4-5 1h-15l-3-8-4-16-1-20v-71l1-13 4-6 5-3z" fill="#7F92B4"/>
<path transform="translate(707,275)" d="m0 0h7l11 16 10 9 1 4-3 6 1 5 11 9 3 5v9l-3 7v2h-2l1 3h-2l1 3h-2l-1 5-10 21-7 11-3 5h-8l-24-8-6-4-6-7-7-12-1-19-2-5v-10l4-9 2-5-11-3-3-3 1-8 5-13 4-6 3-2 21-4z" fill="#7F92B4"/>
<path transform="translate(1123,391)" d="m0 0 4 1 7 4 9 6 8 7 4 4 5 3 21 21v2h2l5 6v2h2l9 11 6 7-1 2-3-3v8l-6 5-4-1-6-4-12-6-10-8-11-11h-2l1 5 6 7 8 7 4 9 1 7-10-1-8-3-13-10-15-15-9-7-8-6 2-1 9 3 8 1v-3h-2v-3l-2-1 7-1v-4l-2-1 4-2 5 8-2-9 4 4 1-6-1-7-1-5-6-6-2-4-8-10z" fill="#62739B"/>
<path transform="translate(575,759)" d="m0 0 7 1 9 3 2 2 1 16v46l-1 2-6-2-3-5v-2l-3-1-9-11-4-6-5-5-7-9-10-14 4-4z" fill="#A0B3CC"/>
<path transform="translate(525,677)" d="m0 0h13l24 1 18 4 10 3 3 3v11l-1 1-11-1-16-4h-15l-22 3h-13l-4-4v-6l6-7z" fill="#9FB2CC"/>
<path transform="translate(625,750)" d="m0 0 6 1 18 10 13 8 17 10 2 5-6 2-1 2-9 1-5 1-7-2-1 3h-5l-3-3h-3v-3h-3l-1 2-4 2-3 4-3-7-2-10z" fill="#A1B4CD"/>
<path transform="translate(1308,691)" d="m0 0h1l6 39 2 21 1 19v58l-3 36-2 14h-1l-1-7-2-1-1-5 2-12 1-13v-6l-2-6-2-4-1-11 2-18-1-25-1-11v-6l1-2 1-12 2-7 1-12-2-11z" fill="#7F92B4"/>
<path transform="translate(1130,806)" d="m0 0h9l12 6 7 8 2 5 1 4h2l1 5h2l-1 3v-2h-2l2 5-1 6-4 1h-8l-3 1-1 10-2 6h-2l-1 5h-2v-2h-2v-6l3 1-4-11-5-21-4-18v-5z" fill="#7F92B4"/>
<path transform="translate(838,351)" d="m0 0 9 1 10 2 3 5 17 7 9 4 11 4 5 5v5l-15 8-9 6-4-1-3-11-1-3-2-1-4-6-1-5-13-2-5-4-3-5-5-4z" fill="#7F92B4"/>
<path transform="translate(575,1282)" d="m0 0 7 1 29 10 22 8 19 6 13 3 15 3 7 2 18 3 25 2 2 1 28 1 17 1 48-1 27-2 23-3 20-4 3-1h9v1l-29 6-30 4-47 3h-44l-28-2-29-4-26-5-32-8-33-11-27-10-7-3z" fill="#7F92B4"/>
<path transform="translate(759,369)" d="m0 0 9 1 8 4 4 3-1 5-7 4-2 1h-11l-8-4-2-2 1-4 5-6z" fill="#7F92B4"/>
<path transform="translate(842,373)" d="m0 0 10 1 9 6 4 8-8 5h-3v2h-7l-5-5-4-10 1-5z" fill="#7E91B3"/>
<path transform="translate(615,717)" d="m0 0h1l1 144 1 14v45l-1 13-1 31h-1z" fill="#96A9C5"/>
<path transform="translate(626,689)" d="m0 0 7 1 8 8 8 11v4l-10-2-14-2-1-1v-17z" fill="#9DB0CA"/>
<path transform="translate(592,765)" d="m0 0h1l1 16v46l-1 2-6-2-3-5v-2l-3-1v-2l8 1-1-7-1-3v-18l-1-2 3-11 2-5z" fill="#7F92B4"/>
<path transform="translate(1045,463)" d="m0 0 6 1 7 6 6 9 1 5-1 2-5 1-9-6-9-12 1-5z" fill="#7F92B4"/>
<path transform="translate(1100,473)" d="m0 0h9l5 5v3h2l-1 5-10-1-11-4-1-3 4-4z" fill="#7F92B4"/>
<path transform="translate(308,959)" d="m0 0 4 2-7 2v2l2 1 110 1v1l-40 1h-55l-18-1-1-1v-6z" fill="#95A8C4"/>
<path transform="translate(754,263)" d="m0 0h63v1l-61 1-14 1-3 1h-23v-1l22-2z" fill="#7F92B4"/>
<path transform="translate(982,1287)" d="m0 0 4 1-34 12-16 5h-3v-2l36-12z" fill="#7F92B4"/>
<path transform="translate(1030,443)" d="m0 0 6 5 4 6v3l-5-2-7-7-1-3z" fill="#7F92B4"/>
<path transform="translate(738,264)" d="m0 0h14v1l-13 2h-23v-1z" fill="#7688AC"/>
<path transform="translate(1109,449)" d="m0 0 3 1 1 4-2 6 2 5-1 4-12-12h3l7 6-1-6 1-6z" fill="#62739B"/>
<path transform="translate(623,749)" d="m0 0 4 1h-2v16l-3-2v-10z" fill="#7F92B4"/>
<path transform="translate(683,271)" d="m0 0h6l-4 3-11 2h-8l4-2z" fill="#7183A8"/>
<path transform="translate(1142,1012)" d="m0 0h2l2 6-3 3h-2l-1-5z" fill="#7F92B4"/>
<path transform="translate(1143,939)" d="m0 0 1 2h2l2 3v4l-6-2z" fill="#7F92B4"/>
<path transform="translate(734,1227)" d="m0 0 1 2-7 12-1-3 4-8z" fill="#7F92B4"/>
<path transform="translate(580,783)" d="m0 0 1 4 2 1-4 2-3-3 1-3z" fill="#7F92B4"/>
</svg>